<svg aria-hidden="true" style="position: absolute; width: 0; height: 0; overflow: hidden;" version="1.1" xmlns="http://www.w3.org/2000/svg" xmlns:xlink="http://www.w3.org/1999/xlink">
<defs>
<symbol id="icon-user" viewBox="0 0 38 32">
<path fill="none" stroke="#99bbc6" style="stroke: var(--color1, #99bbc6)" stroke-linejoin="miter" stroke-linecap="butt" stroke-miterlimit="4" stroke-width="1.6" d="M26.76 8.51c0 4.239-3.53 7.71-7.927 7.71s-7.927-3.471-7.927-7.71c0-4.239 3.53-7.71 7.927-7.71s7.927 3.471 7.927 7.71z"></path>
<path fill="none" stroke="#99bbc6" style="stroke: var(--color1, #99bbc6)" stroke-linejoin="miter" stroke-linecap="butt" stroke-miterlimit="4" stroke-width="1.6" d="M6.967 31.2v0zM6.967 31.2h-0.019M6.967 31.2h-0.019M6.947 31.2h-0.019M6.947 31.2h-0.019M6.928 31.2h-0.019M6.928 31.2h-0.019M6.909 31.2h-0.019M6.909 31.2h-0.019M6.89 31.2h-0.019M6.89 31.2h-0.019M6.871 31.2h-0.019M6.871 31.2h-0.019M6.852 31.2h-0.019M6.852 31.2h-0.019M6.833 31.2h-0.019M6.833 31.2h-0.019M6.814 31.2h-0.019M6.814 31.2h-0.019M6.795 31.2h-0.019M6.795 31.2h-0.019M6.776 31.2h-0.019M6.776 31.2h-0.019M6.757 31.2h-0.019M6.757 31.2h-0.019M6.739 31.2h-0.019M6.739 31.2h-0.019M6.72 31.2h-0.019M6.72 31.2h-0.019M6.702 31.2h-0.018M6.702 31.2h-0.018M6.683 31.2h-0.018M6.683 31.2h-0.018M6.665 31.2h-0.018M6.665 31.2h-0.018M6.646 31.2h-0.018M6.646 31.2h-0.018M6.628 31.2h-0.018M6.628 31.2h-0.018M6.61 31.2h-0.018M6.61 31.2h-0.018M6.592 31.2h-0.018M6.592 31.2h-0.018M6.574 31.2h-0.018M6.574 31.2h-0.018M6.556 31.2h-0.018M6.556 31.2h-0.018M6.538 31.2h-0.018M6.538 31.2h-0.018M6.52 31.2h-0.018M6.52 31.2h-0.018M6.502 31.2h-0.018M6.502 31.2h-0.018M6.484 31.2h-0.018M6.484 31.2h-0.018M6.466 31.2h-0.018M6.466 31.2h-0.018M6.449 31.2h-0.018M6.449 31.2h-0.018M6.431 31.2h-0.018M6.431 31.2h-0.018M6.413 31.2h-0.018M6.413 31.2h-0.018M6.396 31.2h-0.017M6.396 31.2h-0.017M6.378 31.2h-0.017M6.378 31.2h-0.017M6.361 31.2h-0.017M6.361 31.2h-0.017M6.344 31.2h-0.017M6.344 31.2h-0.017M6.326 31.2h-0.017M6.326 31.2h-0.017M6.309 31.2h-0.017M6.309 31.2h-0.017M6.292 31.2h-0.017M6.292 31.2h-0.017M6.275 31.2h-0.017M6.275 31.2h-0.017M6.258 31.2h-0.017M6.258 31.2h-0.017M6.241 31.2h-0.017M6.241 31.2h-0.017M6.224 31.2h-0.017M6.224 31.2h-0.017M6.207 31.2h-0.017M6.207 31.2h-0.017M6.19 31.2h-0.017M6.19 31.2h-0.017M6.173 31.2h-0.017M6.173 31.2h-0.017M6.156 31.2h-0.017M6.156 31.2h-0.017M6.14 31.2h-0.017M6.14 31.2h-0.017M6.123 31.2h-0.017M6.123 31.2h-0.017M6.107 31.2h-0.016M6.107 31.2h-0.016M6.090 31.2h-0.016M6.090 31.2h-0.016M6.074 31.2h-0.016M6.074 31.2h-0.016M6.057 31.2h-0.016M6.057 31.2h-0.016M6.041 31.2h-0.016M6.041 31.2h-0.016M6.025 31.2h-0.016M6.025 31.2h-0.016M6.008 31.2h-0.016M6.008 31.2h-0.016M5.992 31.2h-0.016M5.992 31.2h-0.016M5.976 31.2h-0.016M5.976 31.2h-0.016M5.96 31.2h-0.016M5.96 31.2h-0.016M5.944 31.2h-0.016M5.944 31.2h-0.016M5.928 31.2h-0.016M5.928 31.2h-0.016M5.912 31.2h-0.016M5.912 31.2h-0.016M5.896 31.2h-0.016M5.896 31.2h-0.016M5.88 31.2h-0.016M5.88 31.2h-0.016M5.865 31.2h-0.016M5.865 31.2h-0.016M5.849 31.2h-0.016M5.849 31.2h-0.016M5.833 31.2h-0.016M5.833 31.2h-0.016M5.818 31.2h-0.016M5.818 31.2h-0.016M5.802 31.2h-0.016M5.802 31.2h-0.016M5.787 31.2h-0.015M5.787 31.2h-0.015M5.771 31.2h-0.015M5.771 31.2h-0.015M5.756 31.2h-0.015M5.756 31.2h-0.015M5.741 31.2h-0.015M5.741 31.2h-0.015M5.725 31.2h-0.015M5.725 31.2h-0.015M5.71 31.2h-0.015M5.71 31.2h-0.015M5.695 31.2h-0.015M5.695 31.2h-0.015M5.68 31.2h-0.015M5.68 31.2h-0.015M5.665 31.2h-0.015M5.665 31.2h-0.015M5.65 31.2h-0.015M5.65 31.2h-0.015M5.635 31.2h-0.015M5.635 31.2h-0.015M5.62 31.2h-0.015M5.62 31.2h-0.015M5.605 31.2h-0.015M5.605 31.2h-0.015M5.59 31.2h-0.015M5.59 31.2h-0.015M5.575 31.2h-0.015M5.575 31.2h-0.015M5.56 31.2h-0.015M5.56 31.2h-0.015M5.546 31.2h-0.015M5.546 31.2h-0.015M5.531 31.2h-0.015M5.531 31.2h-0.015M5.517 31.2h-0.015M5.517 31.2h-0.015M5.502 31.2h-0.014M5.502 31.2h-0.014M5.488 31.2h-0.014M5.488 31.2h-0.014M5.473 31.2h-0.014M5.473 31.2h-0.014M5.459 31.2h-0.014M5.459 31.2h-0.014M5.444 31.2h-0.014M5.444 31.2h-0.014M5.43 31.2h-0.014M5.43 31.2h-0.014M5.416 31.2h-0.014M5.416 31.2h-0.014M5.402 31.2h-0.014M5.402 31.2h-0.014M5.387 31.2h-0.014M5.387 31.2h-0.014M5.373 31.2h-0.014M5.373 31.2h-0.014M5.359 31.2h-0.014M5.359 31.2h-0.014M5.345 31.2h-0.014M5.345 31.2h-0.014M5.331 31.2h-0.014M5.331 31.2h-0.014M5.317 31.2h-0.014M5.317 31.2h-0.014M5.303 31.2h-0.014M5.303 31.2h-0.014M5.29 31.2h-0.014M5.29 31.2h-0.014M5.276 31.2h-0.014M5.276 31.2h-0.014M5.262 31.2h-0.014M5.262 31.2h-0.014M5.248 31.2h-0.014M5.248 31.2h-0.014M5.235 31.2h-0.014M5.235 31.2h-0.014M5.221 31.2h-0.014M5.221 31.2h-0.014M5.208 31.2h-0.014M5.208 31.2h-0.014M5.194 31.2h-0.013M5.194 31.2h-0.013M5.181 31.2h-0.013M5.181 31.2h-0.013M5.167 31.2h-0.013M5.167 31.2h-0.013M5.154 31.2h-0.013M5.154 31.2h-0.013M5.141 31.2h-0.013M5.141 31.2h-0.013M5.127 31.2h-0.013M5.127 31.2h-0.013M5.114 31.2h-0.013M5.114 31.2h-0.013M5.101 31.2h-0.013M5.101 31.2h-0.013M5.088 31.2h-0.013M5.088 31.2h-0.013M5.075 31.2h-0.013M5.075 31.2h-0.013M5.062 31.2h-0.013M5.062 31.2h-0.013M5.048 31.2h-0.013M5.048 31.2h-0.013M5.036 31.2h-0.013M5.036 31.2h-0.013M5.023 31.2h-0.013M5.023 31.2h-0.013M5.010 31.2h-0.013M5.010 31.2h-0.013M4.997 31.2h-0.013M4.997 31.2h-0.013M4.984 31.2h-0.013M4.984 31.2h-0.013M4.971 31.2h-0.013M4.971 31.2h-0.013M4.959 31.2h-0.013M4.959 31.2h-0.013M4.946 31.2h-0.013M4.946 31.2h-0.013M4.933 31.2h-0.013M4.933 31.2h-0.013M4.921 31.2h-0.013M4.921 31.2h-0.013M4.908 31.2h-0.013M4.908 31.2h-0.013M4.896 31.2h-0.012M4.896 31.2h-0.012M4.883 31.2h-0.012M4.883 31.2h-0.012M4.871 31.2h-0.012M4.871 31.2h-0.012M4.858 31.2h-0.012M4.858 31.2h-0.012M4.846 31.2h-0.012M4.846 31.2h-0.012M4.834 31.2h-0.012M4.834 31.2h-0.012M4.821 31.2h-0.012M4.821 31.2h-0.012M4.809 31.2h-0.012M4.809 31.2h-0.012M4.797 31.2h-0.012M4.797 31.2h-0.012M4.785 31.2h-0.012M4.785 31.2h-0.012M4.773 31.2h-0.012M4.773 31.2h-0.012M4.761 31.2h-0.012M4.761 31.2h-0.012M4.748 31.2h-0.012M4.748 31.2h-0.012M4.737 31.2h-0.012M4.737 31.2h-0.012M4.725 31.2h-0.012M4.725 31.2h-0.012M4.713 31.2h-0.012M4.713 31.2h-0.012M4.701 31.2h-0.012M4.701 31.2h-0.012M4.689 31.2h-0.012M4.689 31.2h-0.012M4.677 31.2h-0.012M4.677 31.2h-0.012M4.665 31.2h-0.012M4.665 31.2h-0.012M4.654 31.2h-0.012M4.654 31.2h-0.012M4.642 31.2h-0.012M4.642 31.2h-0.012M4.63 31.2h-0.012M4.63 31.2h-0.012M4.619 31.2h-0.012M4.619 31.2h-0.012M4.607 31.2h-0.012M4.607 31.2h-0.012M4.596 31.2h-0.011M4.596 31.2h-0.011M4.584 31.2h-0.011M4.584 31.2h-0.011M4.573 31.2h-0.011M4.573 31.2h-0.011M4.561 31.2h-0.011M4.561 31.2h-0.011M4.55 31.2h-0.011M4.55 31.2h-0.011M4.538 31.2h-0.011M4.538 31.2h-0.011M4.527 31.2h-0.011M4.527 31.2h-0.011M4.516 31.2h-0.011M4.516 31.2h-0.011M4.505 31.2h-0.011M4.505 31.2h-0.011M4.493 31.2h-0.011M4.493 31.2h-0.011M4.482 31.2h-0.011M4.482 31.2h-0.011M4.471 31.2h-0.011M4.471 31.2h-0.011M4.46 31.2h-0.011M4.46 31.2h-0.011M4.449 31.2h-0.011M4.449 31.2h-0.011M4.438 31.2h-0.011M4.438 31.2h-0.011M4.427 31.2h-0.011M4.427 31.2h-0.011M4.416 31.2h-0.011M4.416 31.2h-0.011M4.405 31.2h-0.011M4.405 31.2h-0.011M4.394 31.2h-0.011M4.394 31.2h-0.011M4.383 31.2h-0.011M4.383 31.2h-0.011M4.372 31.2h-0.011M4.372 31.2h-0.011M4.362 31.2h-0.011M4.362 31.2h-0.011M4.351 31.2h-0.011M4.351 31.2h-0.011M4.34 31.2h-0.011M4.34 31.2h-0.011M4.329 31.2h-0.011M4.329 31.2h-0.011M4.319 31.2h-0.011M4.319 31.2h-0.011M4.308 31.2h-0.011M4.308 31.2h-0.011M4.297 31.2h-0.011M4.297 31.2h-0.011M4.287 31.2h-0.011M4.287 31.2h-0.011M4.276 31.2h-0.011M4.276 31.2h-0.011M4.266 31.2h-0.010M4.266 31.2h-0.010M4.255 31.2h-0.010M4.255 31.2h-0.010M4.245 31.2h-0.010M4.245 31.2h-0.010M4.235 31.2h-0.010M4.235 31.2h-0.010M4.224 31.2h-0.010M4.224 31.2h-0.010M4.214 31.2h-0.010M4.214 31.2h-0.010M4.204 31.2h-0.010M4.204 31.2h-0.010M4.193 31.2h-0.010M4.193 31.2h-0.010M4.183 31.2h-0.010M4.183 31.2h-0.010M4.173 31.2h-0.010M4.173 31.2h-0.010M4.163 31.2h-0.010M4.163 31.2h-0.010M4.152 31.2h-0.010M4.152 31.2h-0.010M4.142 31.2h-0.010M4.142 31.2h-0.010M4.132 31.2h-0.010M4.132 31.2h-0.010M4.122 31.2h-0.010M4.122 31.2h-0.010M4.112 31.2h-0.010M4.112 31.2h-0.010M4.102 31.2h-0.010M4.102 31.2h-0.010M4.092 31.2h-0.010M4.092 31.2h-0.010M4.082 31.2h-0.010M4.082 31.2h-0.010M4.072 31.2h-0.010M4.072 31.2h-0.010M4.062 31.2h-0.010M4.062 31.2h-0.010M4.052 31.2h-0.010M4.052 31.2h-0.010M4.043 31.2h-0.010M4.043 31.2h-0.010M4.033 31.2h-0.010M4.033 31.2h-0.010M4.023 31.2h-0.010M4.023 31.2h-0.010M4.013 31.2h-0.010M4.013 31.2h-0.010M4.004 31.2h-0.010M4.004 31.2h-0.010M3.994 31.2h-0.010M3.994 31.2h-0.010M3.984 31.2h-0.010M3.984 31.2h-0.010M3.975 31.2h-0.010M3.975 31.2h-0.010M3.965 31.2h-0.010M3.965 31.2h-0.010M3.955 31.2h-0.010M3.955 31.2h-0.010M3.946 31.2h-0.010M3.946 31.2h-0.010M3.936 31.2h-0.010M3.936 31.2h-0.010M3.927 31.2h-0.010M3.927 31.2h-0.010M3.917 31.2h-0.009M3.917 31.2h-0.009M3.908 31.2h-0.009M3.908 31.2h-0.009M3.898 31.2h-0.009M3.898 31.2h-0.009M3.889 31.2h-0.009M3.889 31.2h-0.009M3.88 31.2h-0.009M3.88 31.2h-0.009M3.87 31.2h-0.009M3.87 31.2h-0.009M3.861 31.2h-0.009M3.861 31.2h-0.009M3.852 31.2h-0.009M3.852 31.2h-0.009M3.842 31.2h-0.009M3.842 31.2h-0.009M3.833 31.2h-0.009M3.833 31.2h-0.009M3.824 31.2h-0.009M3.824 31.2h-0.009M3.815 31.2h-0.009M3.815 31.2h-0.009M3.806 31.2h-0.009M3.806 31.2h-0.009M3.796 31.2h-0.009M3.796 31.2h-0.009M3.787 31.2h-0.009M3.787 31.2h-0.009M3.778 31.2h-0.009M3.778 31.2h-0.009M3.769 31.2h-0.009M3.769 31.2h-0.009M3.76 31.2h-0.009M3.76 31.2h-0.009M3.751 31.2h-0.009M3.751 31.2h-0.009M3.742 31.2h-0.009M3.742 31.2h-0.009M3.733 31.2h-0.009M3.733 31.2h-0.009M3.724 31.2h-0.009M3.724 31.2h-0.009M3.715 31.2h-0.009M3.715 31.2h-0.009M3.706 31.2h-0.009M3.706 31.2h-0.009M3.697 31.2h-0.009M3.697 31.2h-0.009M3.688 31.2h-0.009M3.688 31.2h-0.009M3.68 31.2h-0.009M3.68 31.2h-0.009M3.671 31.2h-0.009M3.671 31.2h-0.009M3.662 31.2h-0.009M3.662 31.2h-0.009M3.653 31.2h-0.009M3.653 31.2h-0.009M3.644 31.2h-0.009M3.644 31.2h-0.009M3.636 31.2h-0.009M3.636 31.2h-0.009M3.627 31.2h-0.009M3.627 31.2h-0.009M3.618 31.2h-0.009M3.618 31.2h-0.009M3.61 31.2h-0.009M3.61 31.2h-0.009M3.601 31.2h-0.009M3.601 31.2h-0.009M3.592 31.2h-0.009M3.592 31.2h-0.009M3.584 31.2h-0.009M3.584 31.2h-0.009M3.575 31.2h-0.009M3.575 31.2h-0.009M3.566 31.2h-0.009M3.566 31.2h-0.009M3.558 31.2h-0.009M3.558 31.2h-0.009M3.549 31.2h-0.009M3.549 31.2h-0.009M3.541 31.2h-0.009M3.541 31.2h-0.009M3.532 31.2h-0.008M3.532 31.2h-0.008M3.524 31.2h-0.008M3.524 31.2h-0.008M3.515 31.2h-0.008M3.515 31.2h-0.008M3.507 31.2h-0.008M3.507 31.2h-0.008M3.498 31.2h-0.008M3.498 31.2h-0.008M3.49 31.2h-0.008M3.49 31.2h-0.008M3.482 31.2h-0.008M3.482 31.2h-0.008M3.473 31.2h-0.008M3.473 31.2h-0.008M3.465 31.2h-0.008M3.465 31.2h-0.008M3.457 31.2h-0.008M3.457 31.2h-0.008M3.448 31.2h-0.008M3.448 31.2h-0.008M3.44 31.2h-0.008M3.44 31.2h-0.008M3.432 31.2h-0.008M3.432 31.2h-0.008M3.423 31.2h-0.008M3.423 31.2h-0.008M3.415 31.2h-0.008M3.415 31.2h-0.008M3.407 31.2h-0.008M3.407 31.2h-0.008M3.399 31.2h-0.008M3.399 31.2h-0.008M3.39 31.2h-0.008M3.39 31.2h-0.008M3.382 31.2h-0.008M3.382 31.2h-0.008M3.374 31.2h-0.008M3.374 31.2h-0.008M3.366 31.2h-0.008M3.366 31.2h-0.008M3.358 31.2h-0.008M3.358 31.2h-0.008M3.35 31.2h-0.008M3.35 31.2h-0.008M3.342 31.2h-0.008M3.342 31.2h-0.008M3.334 31.2h-0.008M3.334 31.2h-0.008M3.325 31.2h-0.008M3.325 31.2h-0.008M3.317 31.2h-0.008M3.317 31.2h-0.008M3.309 31.2h-0.008M3.309 31.2h-0.008M3.301 31.2h-0.008M3.301 31.2h-0.008M3.293 31.2h-0.008M3.293 31.2h-0.008M3.285 31.2h-0.008M3.285 31.2h-0.008M3.277 31.2h-0.008M3.277 31.2h-0.008M3.269 31.2h-0.008M3.269 31.2h-0.008M3.261 31.2h-0.008M3.261 31.2h-0.008M3.253 31.2h-0.008M3.253 31.2h-0.008M3.245 31.2h-0.008M3.245 31.2h-0.008M3.238 31.2h-0.008M3.238 31.2h-0.008M3.23 31.2h-0.008M3.23 31.2h-0.008M3.222 31.2h-0.008M3.222 31.2h-0.008M3.214 31.2h-0.008M3.214 31.2h-0.008M3.206 31.2h-0.008M3.206 31.2h-0.008M3.198 31.2h-0.008M3.198 31.2h-0.008M3.19 31.2h-0.008M3.19 31.2h-0.008M3.182 31.2h-0.008M3.182 31.2h-0.008M3.175 31.2h-0.008M3.175 31.2h-0.008M3.167 31.2h-0.008M3.167 31.2h-0.008M3.159 31.2h-0.008M3.159 31.2h-0.008M3.151 31.2h-0.008M3.151 31.2h-0.008M3.143 31.2h-0.008M3.143 31.2h-0.008M3.136 31.2h-0.008M3.136 31.2h-0.008M3.128 31.2h-0.008M3.128 31.2h-0.008M3.12 31.2h-0.008M3.12 31.2h-0.008M3.112 31.2h-0.008M3.112 31.2h-0.008M3.105 31.2h-0.008M3.105 31.2h-0.008M3.097 31.2h-0.008M3.097 31.2h-0.008M3.089 31.2h-0.008M3.089 31.2h-0.008M3.082 31.2h-0.008M3.082 31.2h-0.008M3.074 31.2h-0.008M3.074 31.2h-0.008M3.066 31.2h-0.008M3.066 31.2h-0.008M3.059 31.2h-0.008M3.059 31.2h-0.008M3.051 31.2h-0.008M3.051 31.2h-0.008M3.043 31.2h-0.008M3.043 31.2h-0.008M3.036 31.2h-0.008M3.036 31.2h-0.008M3.028 31.2h-0.008M3.028 31.2h-0.008M3.021 31.2h-0.008M3.021 31.2h-0.008M3.013 31.2h-0.008M3.013 31.2h-0.008M3.005 31.2h-0.008M3.005 31.2h-0.008M2.998 31.2h-0.008M2.998 31.2h-0.008M2.99 31.2h-0.008M2.99 31.2h-0.008M2.983 31.2h-0.008M2.983 31.2h-0.008M2.975 31.2h-0.008M2.975 31.2h-0.008M2.967 31.2h-0.008M2.967 31.2h-0.008M2.96 31.2h-0.008M2.96 31.2h-0.008M2.952 31.2h-0.008M2.952 31.2h-0.008M2.945 31.2h-0.008M2.945 31.2h-0.008M2.937 31.2h-0.008M2.937 31.2h-0.008M2.93 31.2h-0.008M2.93 31.2h-0.008M2.922 31.2h-0.007M2.922 31.2h-0.007M2.915 31.2h-0.008M2.915 31.2h-0.008M2.907 31.2h-0.007M2.907 31.2h-0.007M2.9 31.2h-0.007M2.9 31.2h-0.007M2.892 31.2h-0.007M2.892 31.2h-0.007M2.885 31.2h-0.007M2.885 31.2h-0.007M2.877 31.2h-0.007M2.877 31.2h-0.007M2.87 31.2h-0.007M2.87 31.2h-0.007M2.862 31.2h-0.007M2.862 31.2h-0.007M2.855 31.2h-0.007M2.855 31.2h-0.007M2.847 31.2h-0.007M2.847 31.2h-0.007M2.84 31.2h-0.007M2.84 31.2h-0.007M2.832 31.2h-0.007M2.832 31.2h-0.007M2.825 31.2h-0.007M2.825 31.2h-0.007M2.818 31.2h-0.007M2.818 31.2h-0.007M2.81 31.2h-0.007M2.81 31.2h-0.007M2.803 31.2h-0.007M2.803 31.2h-0.007M2.795 31.2h-0.007M2.795 31.2h-0.007M2.788 31.2h-0.007M2.788 31.2h-0.007M2.78 31.2h-0.007M2.78 31.2h-0.007M2.773 31.2h-0.007M2.773 31.2h-0.007M2.766 31.2h-0.007M2.766 31.2h-0.007M2.758 31.2h-0.007M2.758 31.2h-0.007M2.751 31.2h-0.007M2.751 31.2h-0.007M2.743 31.2h-0.007M2.743 31.2h-0.007M2.736 31.2h-0.007M2.736 31.2h-0.007M2.728 31.2h-0.007M2.728 31.2h-0.007M2.721 31.2h-0.007M2.721 31.2h-0.007M2.714 31.2h-0.007M2.714 31.2h-0.007M2.706 31.2h-0.007M2.706 31.2h-0.007M2.699 31.2h-0.007M2.699 31.2h-0.007M2.691 31.2h-0.007M2.691 31.2h-0.007M2.684 31.2h-0.007M2.684 31.2h-0.007M2.677 31.2h-0.007M2.677 31.2h-0.007M2.669 31.2h-0.007M2.669 31.2h-0.007M2.662 31.2h-0.007M2.662 31.2h-0.007M2.654 31.2h-0.007M2.654 31.2h-0.007M2.647 31.2h-0.007M2.647 31.2h-0.007M2.64 31.2h-0.007M2.64 31.2h-0.007M2.632 31.2h-0.007M2.632 31.2h-0.007M2.625 31.2h-0.007M2.625 31.2h-0.007M2.618 31.2h-0.007M2.618 31.2h-0.007M2.61 31.2h-0.007M2.61 31.2h-0.007M2.603 31.2h-0.007M2.603 31.2h-0.007M2.595 31.2h-0.007M2.595 31.2h-0.007M2.588 31.2h-0.007M2.588 31.2h-0.007M2.581 31.2h-0.007M2.581 31.2h-0.007M2.573 31.2h-0.007M2.573 31.2h-0.007M2.566 31.2h-0.007M2.566 31.2h-0.007M2.558 31.2h-0.007M2.558 31.2h-0.007M2.551 31.2h-0.007M2.551 31.2h-0.007M2.543 31.2h-0.007M2.543 31.2h-0.007M2.536 31.2h-0.007M2.536 31.2h-0.007M2.529 31.2h-0.007M2.529 31.2h-0.007M2.521 31.2h-0.007M2.521 31.2h-0.007M2.514 31.2h-0.007M2.514 31.2h-0.007M2.506 31.2h-0.007M2.506 31.2h-0.007M2.499 31.2h-0.007M2.499 31.2h-0.007M2.492 31.2h-0.007M2.492 31.2h-0.007M2.484 31.2h-0.007M2.484 31.2h-0.007M2.477 31.2h-0.007M2.477 31.2h-0.007M2.469 31.2h-0.007M2.469 31.2h-0.007M2.462 31.2h-0.007M2.462 31.2h-0.007M2.454 31.2h-0.007M2.454 31.2h-0.007M2.447 31.2h-0.007M2.447 31.2h-0.007M2.439 31.2h-0.007M2.439 31.2h-0.007M2.432 31.2h-0.007M2.432 31.2h-0.007M2.425 31.2h-0.007M2.425 31.2h-0.007M2.417 31.2h-0.007M2.417 31.2h-0.007M2.41 31.2h-0.007M2.41 31.2h-0.007M2.402 31.2h-0.007M2.402 31.2h-0.007M2.395 31.2h-0.007M2.395 31.2h-0.007M2.387 31.2h-0.007M2.387 31.2h-0.007M2.38 31.2h-0.007M2.38 31.2h-0.007M2.372 31.2h-0.007M2.372 31.2h-0.007M2.365 31.2h-0.007M2.365 31.2h-0.007M2.357 31.2h-0.008M2.357 31.2h-0.008M2.35 31.2h-0.008M2.35 31.2h-0.008M2.342 31.2h-0.008M2.342 31.2h-0.008M2.335 31.2h-0.008M2.335 31.2h-0.008M2.327 31.2h-0.008M2.327 31.2h-0.008M2.32 31.2h-0.008M2.32 31.2h-0.008M2.312 31.2h-0.008M2.312 31.2h-0.008M2.304 31.2h-0.008M2.304 31.2h-0.008M2.297 31.2h-0.008M2.297 31.2h-0.008M2.289 31.2h-0.008M2.289 31.2h-0.008M2.282 31.2h-0.008M2.282 31.2h-0.008M2.274 31.2h-0.008M2.274 31.2h-0.008M2.267 31.2h-0.008M2.267 31.2h-0.008M2.259 31.2h-0.008M2.259 31.2h-0.008M2.251 31.2h-0.008M2.251 31.2h-0.008M2.244 31.2h-0.008M2.244 31.2h-0.008M2.236 31.2h-0.008M2.236 31.2h-0.008M2.228 31.2h-0.008M2.228 31.2h-0.008M2.221 31.2h-0.008M2.221 31.2h-0.008M2.213 31.2h-0.008M2.213 31.2h-0.008M2.205 31.2h-0.008M2.205 31.2h-0.008M2.198 31.2h-0.008M2.198 31.2h-0.008M2.19 31.2h-0.008M2.19 31.2h-0.008M2.182 31.2h-0.008M2.182 31.2h-0.008M2.175 31.2h-0.008M2.175 31.2h-0.008M2.167 31.2h-0.008M2.167 31.2h-0.008M2.159 31.2h-0.008M2.159 31.2h-0.008M2.151 31.2h-0.008M2.151 31.2h-0.008M2.144 31.2h-0.008M2.144 31.2h-0.008M2.136 31.2h-0.008M2.136 31.2h-0.008M2.128 31.2h-0.008M2.128 31.2h-0.008M2.12 31.2h-0.008M2.12 31.2h-0.008M2.113 31.2h-0.008M2.113 31.2h-0.008M2.105 31.2h-0.008M2.105 31.2h-0.008M2.097 31.2h-0.008M2.097 31.2h-0.008M2.089 31.2h-0.008M2.089 31.2h-0.008M2.081 31.2h-0.008M2.081 31.2h-0.008M2.074 31.2h-0.008M2.074 31.2h-0.008M2.066 31.2h-0.008M2.066 31.2h-0.008M2.058 31.2h-0.008M2.058 31.2h-0.008M2.050 31.2h-0.008M2.050 31.2h-0.008M2.042 31.2h-0.008M2.042 31.2h-0.008M2.034 31.2h-0.008M2.034 31.2h-0.008M2.026 31.2h-0.008M2.026 31.2h-0.008M2.018 31.2h-0.008M2.018 31.2h-0.008M2.010 31.2h-0.008M2.010 31.2h-0.008M2.002 31.2h-0.008M2.002 31.2h-0.008M1.994 31.2h-0.008M1.994 31.2h-0.008M1.986 31.2h-0.008M1.986 31.2h-0.008M1.978 31.2h-0.008M1.978 31.2h-0.008M1.97 31.2h-0.008M1.97 31.2h-0.008M1.962 31.2h-0.008M1.962 31.2h-0.008M1.954 31.2h-0.008M1.954 31.2h-0.008M1.946 31.2h-0.008M1.946 31.2h-0.008M1.938 31.2h-0.008M1.938 31.2h-0.008M1.93 31.2h-0.008M1.93 31.2h-0.008M1.922 31.2h-0.008M1.922 31.2h-0.008M1.914 31.2h-0.008M1.914 31.2h-0.008M1.905 31.2h-0.008M1.905 31.2h-0.008M1.897 31.2h-0.008M1.897 31.2h-0.008M1.889 31.2h-0.008M1.889 31.2h-0.008M1.881 31.2h-0.008M1.881 31.2h-0.008M1.873 31.2h-0.008M1.873 31.2h-0.008M1.865 31.2h-0.008M1.865 31.2h-0.008M1.856 31.2h-0.008M1.856 31.2h-0.008M1.848 31.2h-0.008M1.848 31.2h-0.008M1.84 31.2h-0.008M1.84 31.2h-0.008M1.831 31.2h-0.008M1.831 31.2h-0.008M1.823 31.2h-0.008M1.823 31.2h-0.008M1.815 31.2h-0.008M1.815 31.2h-0.008M1.806 31.2h-0.008M1.806 31.2h-0.008M1.798 31.2h-0.008M1.798 31.2h-0.008M1.79 31.2h-0.008M1.79 31.2h-0.008M1.781 31.2h-0.008M1.781 31.2h-0.008M1.773 31.2h-0.008M1.773 31.2h-0.008M1.764 31.2h-0.008M1.764 31.2h-0.008M1.756 31.2h-0.008M1.756 31.2h-0.008M1.748 31.2h-0.008M1.748 31.2h-0.008M1.739 31.2h-0.009M1.739 31.2h-0.009M1.73 31.2h-0.009M1.73 31.2h-0.009M1.722 31.2h-0.009M1.722 31.2h-0.009M1.713 31.2h-0.009M1.713 31.2h-0.009M1.705 31.2h-0.009M1.705 31.2h-0.009M1.696 31.2h-0.009M1.696 31.2h-0.009M1.688 31.2h-0.009M1.688 31.2h-0.009M1.679 31.2h-0.009M1.679 31.2h-0.009M1.67 31.2h-0.009M1.67 31.2h-0.009M1.662 31.2h-0.009M1.662 31.2h-0.009M1.653 31.2h-0.009M1.653 31.2h-0.009M1.644 31.2h-0.009M1.644 31.2h-0.009M1.635 31.2h-0.009M1.635 31.2h-0.009M1.627 31.2h-0.009M1.627 31.2h-0.009M1.618 31.2h-0.009M1.618 31.2h-0.009M1.609 31.2h-0.009M1.609 31.2h-0.009M1.6 31.2c-0.225 0-0.418-0.092-0.538-0.22l0.538 0.22zM36.736 30.551l0.787-0.143-35.922 1.592c-0.884 0-1.615-0.722-1.457-1.592l0.787 0.143c0.522-2.884 2.604-5.528 5.8-7.47 3.189-1.938 7.428-3.134 12.103-3.134s8.914 1.196 12.103 3.134c3.196 1.942 5.278 4.586 5.8 7.47z"></path>
</symbol>
<symbol id="icon-phone" viewBox="0 0 32 32">
<path fill="#99bbc6" style="fill: var(--color1, #99bbc6)" d="M6.46 21.046c3.156 3.733 6.956 6.672 11.292 8.752 1.651 0.774 3.859 1.693 6.319 1.85 0.153 0.007 0.298 0.013 0.451 0.013 1.651 0 2.977-0.564 4.058-1.725 0.007-0.007 0.020-0.020 0.027-0.033 0.385-0.459 0.822-0.873 1.28-1.312 0.312-0.295 0.63-0.604 0.935-0.918 1.412-1.456 1.412-3.307-0.013-4.717l-3.985-3.943c-0.676-0.695-1.485-1.063-2.334-1.063s-1.664 0.367-2.36 1.056l-2.374 2.349c-0.219-0.125-0.444-0.236-0.656-0.341-0.265-0.131-0.511-0.256-0.729-0.394-2.162-1.358-4.124-3.129-6.001-5.406-0.948-1.187-1.585-2.185-2.029-3.201 0.623-0.558 1.207-1.142 1.77-1.712 0.199-0.203 0.404-0.407 0.61-0.61 0.716-0.709 1.101-1.529 1.101-2.362s-0.378-1.653-1.101-2.362l-1.976-1.955c-0.232-0.23-0.451-0.453-0.676-0.682-0.438-0.446-0.895-0.905-1.346-1.319-0.683-0.663-1.485-1.010-2.334-1.010-0.842 0-1.651 0.348-2.361 1.017l-2.48 2.454c-0.902 0.892-1.412 1.975-1.518 3.228-0.126 1.568 0.166 3.234 0.922 5.248 1.16 3.116 2.911 6.009 5.51 9.099zM1.646 6.836c0.080-0.873 0.418-1.601 1.054-2.231l2.467-2.441c0.385-0.367 0.809-0.558 1.22-0.558 0.404 0 0.816 0.19 1.194 0.571 0.444 0.407 0.862 0.833 1.313 1.286 0.225 0.23 0.458 0.459 0.69 0.695l1.976 1.955c0.411 0.407 0.623 0.82 0.623 1.227s-0.212 0.82-0.623 1.227c-0.206 0.203-0.411 0.413-0.617 0.617-0.617 0.617-1.194 1.201-1.83 1.758-0.013 0.013-0.020 0.020-0.033 0.033-0.55 0.545-0.464 1.063-0.332 1.456 0.007 0.020 0.013 0.033 0.020 0.052 0.511 1.214 1.22 2.368 2.327 3.746 1.989 2.427 4.085 4.31 6.392 5.76 0.285 0.184 0.59 0.328 0.875 0.472 0.265 0.131 0.511 0.256 0.729 0.394 0.027 0.013 0.046 0.026 0.073 0.039 0.219 0.112 0.431 0.164 0.643 0.164 0.531 0 0.875-0.335 0.988-0.446l2.48-2.454c0.385-0.38 0.802-0.584 1.213-0.584 0.504 0 0.915 0.308 1.174 0.584l3.998 3.949c0.796 0.787 0.789 1.64-0.020 2.473-0.279 0.295-0.57 0.577-0.882 0.873-0.464 0.446-0.948 0.905-1.386 1.424-0.763 0.814-1.671 1.194-2.845 1.194-0.113 0-0.232-0.007-0.345-0.013-2.175-0.138-4.197-0.977-5.716-1.693-4.124-1.975-7.745-4.776-10.748-8.332-2.473-2.946-4.138-5.688-5.238-8.627-0.683-1.804-0.942-3.254-0.835-4.573z"></path>
</symbol>
<symbol id="icon-mail" viewBox="0 0 43 32">
<path fill="none" stroke="#99bbc6" style="stroke: var(--color1, #99bbc6)" stroke-linejoin="miter" stroke-linecap="butt" stroke-miterlimit="4" stroke-width="1.7778" d="M0.889 0.889h39.822v30.222h-39.822v-30.222z"></path>
<path fill="none" stroke="#99bbc6" style="stroke: var(--color1, #99bbc6)" stroke-linejoin="miter" stroke-linecap="butt" stroke-miterlimit="4" stroke-width="1.7778" d="M1.6 0.8l20 20.8 18.4-20.8"></path>
</symbol>
</defs>
</svg>

